<svg preserveAspectRatio="none" overflow="visible" style="display: block;" width="180" height="100" viewBox="0 0 180 100" fill="none" xmlns="http://www.w3.org/2000/svg">
<g id="Link &#226;&#134;&#146; SVG" clip-path="url(#clip0_0_5)">
<g id="Group">
<path id="Vector" d="M46.8351 24.3914H55.0299V75.6086H46.8351V24.3914ZM83.7115 59.2703C83.7115 67.1086 77.1209 67.7335 75.1603 67.7335C70.2619 67.7335 69.3707 63.1485 69.3707 60.3828V40.7809H61.1759V60.3418C61.1759 65.1972 62.7002 69.2044 65.3717 71.8759C67.7318 74.2381 71.2678 75.5287 75.0989 75.5287C77.8154 75.5287 81.6629 74.6826 83.7115 72.8122V75.6086H91.9063V40.7809H83.7115V59.2703ZM108.296 28.4887H100.101V40.7809H93.955V48.9757H100.101V75.6086H108.296V48.9757H114.442V40.7809H108.296V28.4887ZM140.249 65.1951C138.465 66.7993 136.109 67.6884 133.523 67.6884C127.824 67.6884 123.638 63.5029 123.638 57.7563C123.638 52.0098 127.691 48.0005 133.523 48.0005C136.064 48.0005 138.465 48.8466 140.294 50.4507L141.538 51.5201L147.063 45.9969L145.68 44.7492C142.429 41.8134 138.112 40.1663 133.521 40.1663C123.278 40.1663 115.839 47.558 115.839 57.7133C115.839 67.8257 123.456 75.4816 133.521 75.4816C138.199 75.4816 142.56 73.8345 145.77 70.8516L147.106 69.6039L141.495 64.0847L140.249 65.1951ZM176.312 43.8171C173.952 41.457 171.187 40.1663 167.355 40.1663C164.639 40.1663 161.562 41.0124 159.513 42.8808V24.3914H151.318V75.6086H159.513V56.4226C159.513 48.5844 165.081 47.9616 167.042 47.9616C171.94 47.9616 171.805 52.5486 171.805 55.3102V75.6086H180V55.3532C180 50.4978 178.986 46.4906 176.312 43.8171Z" fill="white"/>
</g>
<path id="Vector_2" d="M133.253 51.9217C134.824 51.9217 136.331 52.5459 137.442 53.657C138.554 54.7681 139.178 56.2751 139.178 57.8465C139.178 59.4178 138.554 60.9248 137.442 62.036C136.331 63.1471 134.824 63.7713 133.253 63.7713C131.682 63.7713 130.175 63.1471 129.064 62.036C127.952 60.9248 127.328 59.4178 127.328 57.8465C127.328 56.2751 127.952 54.7681 129.064 53.657C130.175 52.5459 131.682 51.9217 133.253 51.9217Z" fill="#FF3D2E"/>
<path id="Vector_3" d="M35.3624 62.7449C32.2464 65.9511 28.0138 67.6884 23.5599 67.6884C14.431 67.6884 7.79322 60.518 7.79322 50.6761C7.79322 40.7891 14.431 33.6187 23.5599 33.6187C27.9708 33.6187 32.1562 35.3539 35.3194 38.5171L36.565 39.7647L42.0432 34.2865L40.8406 33.0389C36.2987 28.3617 30.1526 25.8255 23.5599 25.8255C10.1103 25.8255 -5.35369e-07 36.5135 -5.35369e-07 50.7191C-5.35369e-07 64.8817 10.1554 75.5267 23.5599 75.5267C30.1977 75.5267 36.3438 72.9453 40.8857 68.2682L42.0883 67.0205L36.6552 61.4542L35.3624 62.7449Z" fill="white"/>
</g>
<defs>
<clipPath id="clip0_0_5">
<rect width="180" height="100" fill="white"/>
</clipPath>
</defs>
</svg>
