<svg preserveAspectRatio="none" overflow="visible" style="display: block;" width="32" height="32" viewBox="0 0 32 32" fill="none" xmlns="http://www.w3.org/2000/svg">
<g id="user-community-fill">
<path id="Vector" d="M6.97839 10.3065C8.87071 7.315 12.2046 5.33333 16.0003 5.33333C19.796 5.33333 23.1299 7.315 25.0223 10.3065L27.2759 8.88095C24.9153 5.14932 20.7483 2.66667 16.0003 2.66667C11.2524 2.66667 7.08524 5.14932 4.72475 8.88095L6.97839 10.3065ZM16.0003 26.6667C12.2046 26.6667 8.87071 24.6851 6.97839 21.6935L4.72475 23.1191C7.08524 26.8507 11.2524 29.3333 16.0003 29.3333C20.7483 29.3333 24.9153 26.8507 27.2759 23.1191L25.0223 21.6935C23.1299 24.6851 19.796 26.6667 16.0003 26.6667ZM16 16C18.2092 16 20 14.2092 20 12C20 9.79087 18.2092 8 16 8C13.7908 8 12 9.79087 12 12C12 14.2092 13.7908 16 16 16ZM16 17.3333C18.9455 17.3333 21.3333 19.7212 21.3333 22.6667H10.6667C10.6667 19.7212 13.0545 17.3333 16 17.3333ZM8 16C8 18.2092 6.20913 20 4 20C1.79087 20 0 18.2092 0 16C0 13.7908 1.79087 12 4 12C6.20913 12 8 13.7908 8 16ZM28 20C30.2092 20 32 18.2092 32 16C32 13.7908 30.2092 12 28 12C25.7908 12 24 13.7908 24 16C24 18.2092 25.7908 20 28 20Z" fill="white"/>
</g>
</svg>
